<?xml version="1.0" encoding="UTF-8" standalone="no"?>
<!DOCTYPE svg PUBLIC "-//W3C//DTD SVG 1.1//EN" "http://www.w3.org/Graphics/SVG/1.1/DTD/svg11.dtd">
<!-- 14.4338/25 = 0,577352 ; 28.8675 -->
<svg width="295" height="92.169" version="1.1" baseProfile="full" xmlns="http://www.w3.org/2000/svg" xmlns:xlink="http://www.w3.org/1999/xlink" xmlns:ev="http://www.w3.org/2001/xml-events" >
	
	<style>
	.line {
		transition:all 0.4s ease;
	}
	#box .line {
		opacity:0;
		stroke-width:0.25;
		stroke:rgba(0,0,0,.5);
	}
	#grid .line {
		opacity:0;
		stroke-width:0.25;
		stroke:rgba(0,255,0,.25);
	}
	#text .line {
		opacity:0;
		stroke-width:3;
		stroke:rgba(0,0,0,1);
		fill: none;
	}
	</style>
	
	<g id="box" >
		
		<path class="line" d="
			M 0 9.5 L 295 9.5
			M 0 82.669 L 295 82.669
			
			M 9.5 0 L 9.5 92.169
			M 285.5 0 L 285.5 92.169
			
			" />
		
	</g>
	
	<g id="grid" >
		
		<path class="line" d="
			M 10 10 L 10 82.169
			M 35 10 L 35 82.169
			M 60 10 L 60 82.169
			M 85 10 L 85 82.169
			M 110 10 L 110 82.169
			M 135 10 L 135 82.169
			M 160 10 L 160 82.169
			M 185 10 L 185 82.169
			M 210 10 L 210 82.169
			M 235 10 L 235 82.169
			M 260 10 L 260 82.169
			M 285 10 L 285 82.169
			" />
		
		<path class="line" d="
			M 10 67.7352 L 35 82.169
			M 10 53.3014 L 60 82.169
			M 10 38.8676 L 85 82.169
			M 10 24.4338 L 110 82.169
			M 10 10 L 135 82.169
			M 35 10 L 160 82.169
			M 60 10 L 185 82.169
			M 85 10 L 210 82.169
			M 110 10 L 235 82.169
			M 135 10 L 260 82.169
			M 160 10 L 285 82.169
			M 185 10 L 285 67.7352
			M 210 10 L 285 53.3014
			M 235 10 L 285 38.8676
			M 260 10 L 285 24.4338
			" />
		
		<path class="line" d="
			M 285 67.7352 L 260 82.169
			M 285 53.3014 L 235 82.169
			M 285 38.8676 L 210 82.169
			M 285 24.4338 L 185 82.169
			M 285 10 L 160 82.169
			M 260 10 L 135 82.169
			M 235 10 L 110 82.169
			M 210 10 L 85 82.169
			M 185 10 L 60 82.169
			M 160 10 L 35 82.169
			M 135 10 L 10 82.169
			M 110 10 L 10 67.7352
			M 85 10 L 10 53.3014
			M 60 10 L 10 38.8676
			M 35 10 L 10 24.4338
			
			" />
		
	</g>
	
	<g id="text" >
		
		<!-- a -->
		<path class="line" d="
			M 60 67.7352
			l 0 -28.8676
			l -25 -14.4338
			l -25 14.4338
			l 0 28.8676
			l 50 -28.8676
			" />
		
		<!-- z -->
		<path class="line" d="
			M 85 24.4338
			l 25 -14.4338
			l 25 14.4338
			l -50 28.8676
			l 25 14.4338
			l 25 -14.4338
			" />
		
		<!-- b -->
		<path class="line" d="
			M 160 10
			l 0 57.7352
			l 25 14.4338
			l 25 -14.4338
			l 0 -28.8676
			l -25 -14.4338
			l -25 14.4338
			" />
		
		<!-- n -->
		<path class="line" d="
			M 235 67.7352
			l 0 -28.8676
			l 50 28.8676
			l 0 -28.8676
			l -25 -14.4338
			" />
		
	</g>
	
	
	<!--
	<pattern id="pattern" width="100%" height="100%"></pattern>
	
	<g><line class="line" x1="0%" y1="0%" x2="250%" y2="144.338%" /></g>
	<g><line class="line" x1="100%" y1="0%" x2="-150%" y2="144.338%" /></g>
	<g><line class="line" x1="0%" y1="0%" x2="0%" y2="100%" /></g>
	-->
	<!--
	<g><line class="line" x1="10" y1="10" x2="35" y2="24.4338" /></g>
	<g><line class="line" x1="35" y1="24.4338" x2="35" y2="53.3013" /></g>
	<g><line class="line" x1="35" y1="53.3013" x2="10" y2="67.7351" /></g>
	-->
	
	<!--
	<g id="text" >
		
		<g><line class="line" x1="60" y1="38.8676" x2="60" y2="67.7352" /></g>
		<g><line class="line" x1="35" y1="24.4338" x2="60" y2="38.8676" /></g>
		<g><line class="line" x1="35" y1="24.4338" x2="10" y2="38.8676" /></g>
		<g><line class="line" x1="10" y1="38.8676" x2="10" y2="67.7352" /></g>
		<g><line class="line" x1="10" y1="67.7352" x2="60" y2="38.8676" /></g>
		
		<g><line class="line" x1="85" y1="24.4338" x2="110" y2="10" /></g>
		<g><line class="line" x1="110" y1="10" x2="135" y2="24.4338" /></g>
		<g><line class="line" x1="135" y1="24.4338" x2="85" y2="53.3014" /></g>
		<g><line class="line" x1="85" y1="53.3014" x2="110" y2="67.7352" /></g>
		<g><line class="line" x1="110" y1="67.7352" x2="135" y2="53.3014" /></g>
		
		<g><line class="line" x1="160" y1="10" x2="160" y2="67.7352" /></g>
		<g><line class="line" x1="160" y1="67.7352" x2="185" y2="82.169" /></g>
		<g><line class="line" x1="185" y1="82.169" x2="210" y2="67.7352" /></g>
		<g><line class="line" x1="210" y1="67.7352" x2="210" y2="38.8676"  /></g>
		<g><line class="line" x1="210" y1="38.8676" x2="185" y2="24.4338" /></g>
		<g><line class="line" x1="185" y1="24.4338" x2="160" y2="38.8676" /></g>
		
		<g><line class="line" x1="235" y1="67.7352" x2="235" y2="38.8676" /></g>
		<g><line class="line" x1="235" y1="38.8676" x2="285" y2="67.7352" /></g>
		<g><line class="line" x1="285" y1="67.7352" x2="285" y2="38.8676" /></g>
		<g><line class="line" x1="285" y1="38.8676" x2="260" y2="24.4338" /></g>
		
	</g>
	-->
	
</svg>